# xmcd
#
# Track frame offsets:
#  150
#  23444
#  42454
#  54110
#  79556
#
# Disc length: 1316 seconds
#
# Revision: 0
# Processed by: cddbd v1.5.1PL0 Copyright (c) Steve Scherf et al.
# Submitted via: AltoMP3_Maker 3.0
#
DISCID=2a052205
DTITLE=Rameses III - Demo
DYEAR=1900
DGENRE=
TTITLE0=Where The River Flows
TTITLE1=The Bad Time Prayer
TTITLE2=Red Autumn Leaves
TTITLE3=Montague Hill
TTITLE4=Standing On The Sleepside (Rough Mix)
EXTD=
EXTT0=
EXTT1=
EXTT2=
EXTT3=
EXTT4=
PLAYORDER=
